<svg xmlns="http://www.w3.org/2000/svg" xmlns:xlink="http://www.w3.org/1999/xlink" version="1.1" width="1000" height="1000" viewBox="0 0 1000 1000" xml:space="preserve">
<desc>Created with Fabric.js 3.5.0</desc>
<defs>
</defs>
<rect x="0" y="0" width="100%" height="100%" fill="rgba(255,255,255,0)"/>
<g transform="matrix(0.4 0 0 0.4 500 500)" id="690554">
<g style="" vector-effect="non-scaling-stroke">
		<g transform="matrix(8.6797 0 0 8.6797 -1.8124 -1.0439)">
<path style="stroke: none; stroke-width: 1; stroke-dasharray: none; stroke-linecap: butt; stroke-dashoffset: 0; stroke-linejoin: miter; stroke-miterlimit: 4; is-custom-font: none; font-file-url: none; fill: rgb(255,255,255); fill-rule: nonzero; opacity: 1;" transform=" translate(-127.791, -143.8939)" d="M 255.569 84.72 c -0.002 -4.83 -1.035 -9.098 -3.124 -12.761 c -2.052 -3.602 -5.125 -6.621 -9.247 -9.008 c -34.025 -19.619 -68.083 -39.178 -102.097 -58.817 c -9.17 -5.294 -18.061 -5.101 -27.163 0.269 C 100.395 12.39 32.59 51.237 12.385 62.94 C 4.064 67.757 0.015 75.129 0.013 84.711 C 0 124.166 0.013 163.62 0 203.076 c 0.002 4.724 0.991 8.909 2.988 12.517 c 2.053 3.711 5.169 6.813 9.386 9.254 c 20.206 11.703 88.02 50.547 101.56 58.536 c 9.106 5.373 17.997 5.565 27.17 0.269 c 34.015 -19.64 68.075 -39.198 102.105 -58.817 c 4.217 -2.44 7.333 -5.544 9.386 -9.252 c 1.994 -3.608 2.985 -7.793 2.987 -12.518 c 0 0 0 -78.889 -0.013 -118.345" stroke-linecap="round"/>
</g>
		<g transform="matrix(8.6797 0 0 8.6797 -1.8081 620.6004)">
<path style="stroke: none; stroke-width: 1; stroke-dasharray: none; stroke-linecap: butt; stroke-dashoffset: 0; stroke-linejoin: miter; stroke-miterlimit: 4; is-custom-font: none; font-file-url: none; fill: rgb(255,255,255); fill-rule: nonzero; opacity: 1;" transform=" translate(-127.7915, -215.5146)" d="M 128.182 143.509 L 2.988 215.593 c 2.053 3.711 5.169 6.813 9.386 9.254 c 20.206 11.703 88.02 50.547 101.56 58.536 c 9.106 5.373 17.997 5.565 27.17 0.269 c 34.015 -19.64 68.075 -39.198 102.105 -58.817 c 4.217 -2.44 7.333 -5.544 9.386 -9.252 l -124.413 -72.074" stroke-linecap="round"/>
</g>
		<g transform="matrix(8.6797 0 0 8.6797 -1.2147 180.6992)">
<path style="stroke: none; stroke-width: 1; stroke-dasharray: none; stroke-linecap: butt; stroke-dashoffset: 0; stroke-linejoin: miter; stroke-miterlimit: 4; is-custom-font: none; font-file-url: none; fill: rgb(255,255,255); fill-rule: nonzero; opacity: 1;" transform=" translate(-127.86, -164.833)" d="M 91.101 164.861 c 7.285 12.718 20.98 21.296 36.69 21.296 c 15.807 0 29.58 -8.687 36.828 -21.541 l -36.437 -21.107 l -37.081 21.352" stroke-linecap="round"/>
</g>
		<g transform="matrix(8.6797 0 0 8.6797 554.4766 -2.1117)">
<path style="stroke: none; stroke-width: 1; stroke-dasharray: none; stroke-linecap: butt; stroke-dashoffset: 0; stroke-linejoin: miter; stroke-miterlimit: 4; is-custom-font: none; font-file-url: none; fill: rgb(255,255,255); fill-rule: nonzero; opacity: 1;" transform=" translate(-191.882, -143.771)" d="M 255.569 84.72 c -0.002 -4.83 -1.035 -9.098 -3.124 -12.761 l -124.263 71.55 l 124.413 72.074 c 1.994 -3.608 2.985 -7.793 2.987 -12.518 c 0 0 0 -78.889 -0.013 -118.345" stroke-linecap="round"/>
</g>
		<g transform="matrix(8.6797 0 0 8.6797 767.3543 -1.8477)">
<path style="stroke: none; stroke-width: 1; stroke-dasharray: none; stroke-linecap: butt; stroke-dashoffset: 0; stroke-linejoin: miter; stroke-miterlimit: 4; is-custom-font: none; font-file-url: none; fill: rgb(92,141,188); fill-rule: nonzero; opacity: 1;" transform=" translate(-216.408, -143.8015)" d="M 248.728 148.661 h -9.722 v 9.724 h -9.724 v -9.724 h -9.721 v -9.721 h 9.721 v -9.722 h 9.724 v 9.722 h 9.722 v 9.721 M 213.253 148.661 h -9.721 v 9.724 h -9.722 v -9.724 h -9.722 v -9.721 h 9.722 v -9.722 h 9.722 v 9.722 h 9.721 v 9.721" stroke-linecap="round"/>
</g>
		<g transform="matrix(8.6797 0 0 8.6797 -50.2501 -1.0484)">
<path style="stroke: none; stroke-width: 1; stroke-dasharray: none; stroke-linecap: butt; stroke-dashoffset: 0; stroke-linejoin: miter; stroke-miterlimit: 4; is-custom-font: none; font-file-url: none; fill: rgb(92,141,188); fill-rule: nonzero; opacity: 1;" transform=" translate(-122.2105, -143.8935)" d="M 164.619 164.616 c -7.248 12.854 -21.021 21.541 -36.828 21.541 c -15.71 0 -29.405 -8.578 -36.69 -21.296 a 42.062 42.062 0 0 1 -5.574 -20.968 c 0 -23.341 18.923 -42.263 42.264 -42.263 c 15.609 0 29.232 8.471 36.553 21.059 l 36.941 -21.272 c -14.683 -25.346 -42.096 -42.398 -73.494 -42.398 c -46.876 0 -84.875 38 -84.875 84.874 c 0 15.378 4.091 29.799 11.241 42.238 c 14.646 25.48 42.137 42.637 73.634 42.637 c 31.555 0 59.089 -17.226 73.714 -42.781 l -36.886 -21.371" stroke-linecap="round"/>
</g>
</g>
</g>
</svg>