<svg xmlns="http://www.w3.org/2000/svg" xmlns:xlink="http://www.w3.org/1999/xlink" version="1.1" width="1000" height="1000" viewBox="0 0 1000 1000" xml:space="preserve">
<desc>Created with Fabric.js 3.5.0</desc>
<defs>
</defs>
<rect x="0" y="0" width="100%" height="100%" fill="rgba(255,255,255,0)"/>
<g transform="matrix(7.4758 0 0 7.4758 512.1278 512.1273)" id="508165">
<path style="stroke: none; stroke-width: 1; stroke-dasharray: none; stroke-linecap: butt; stroke-dashoffset: 0; stroke-linejoin: miter; stroke-miterlimit: 4; is-custom-font: none; font-file-url: none; fill: rgb(255,255,255); fill-rule: nonzero; opacity: 1;" transform=" translate(-56.9641, -57.0511)" d="M 111.78 51.977 L 62.035 2.2381 c -2.8622 -2.8648 -7.5082 -2.8648 -10.374 0 l -10.329 10.33 l 13.102 13.102 c 3.0459 -1.0284 6.5371 -0.33888 8.9639 2.0884 c 2.4394 2.4424 3.124 5.9634 2.0698 9.0195 l 12.628 12.628 c 3.0551 -1.0528 6.58 -0.37262 9.0195 2.0712 c 3.4106 3.4096 3.4106 8.9345 0 12.345 c -3.4111 3.4116 -8.936 3.4116 -12.349 0 c -2.5645 -2.5665 -3.1988 -6.3345 -1.8999 -9.4942 l -11.777 -11.777 l -0.001 30.991 c 0.8315 0.41162 1.6162 0.961 2.3091 1.6509 c 3.4096 3.4092 3.4096 8.9331 0 12.348 c -3.4106 3.4091 -8.938 3.4091 -12.345 0 c -3.4101 -3.4146 -3.4101 -8.9385 0 -12.348 c 0.84275 -0.84125 1.8179 -1.478 2.8584 -1.9048 v -31.279 c -1.041 -0.425 -2.015 -1.057 -2.859 -1.905 c -2.583 -2.581 -3.2051 -6.372 -1.8804 -9.5439 l -12.916 -12.918 l -34.106 34.105 c -2.8657 2.867 -2.8657 7.513 0 10.378 l 49.742 49.739 c 2.8638 2.8648 7.5082 2.8648 10.376 0 l 49.512 -49.504 c 2.8648 -2.8662 2.8648 -7.5136 0 -10.379" stroke-linecap="round"/>
</g>
</svg>