<svg xmlns="http://www.w3.org/2000/svg" xmlns:xlink="http://www.w3.org/1999/xlink" version="1.1" width="1000" height="1000" viewBox="0 0 1000 1000" xml:space="preserve">
<desc>Created with Fabric.js 3.5.0</desc>
<defs>
</defs>
<rect x="0" y="0" width="100%" height="100%" fill="rgba(255,255,255,0)"/>
<g transform="matrix(37.8788 0 0 37.8788 500.0001 500.0002)" id="69675">
<path style="stroke: none; stroke-width: 1; stroke-dasharray: none; stroke-linecap: butt; stroke-dashoffset: 0; stroke-linejoin: miter; stroke-miterlimit: 4; is-custom-font: none; font-file-url: none; fill: rgb(255,255,255); fill-rule: nonzero; opacity: 1;" vector-effect="non-scaling-stroke" transform=" translate(-12, -11.7041)" d="M 12 0 c -6.626 0 -12 5.373 -12 12 c 0 5.302 3.438 9.8 8.207 11.387 c 0.599 0.111 0.793 -0.261 0.793 -0.577 v -2.234 c -3.338 0.726 -4.033 -1.416 -4.033 -1.416 c -0.546 -1.387 -1.333 -1.756 -1.333 -1.756 c -1.089 -0.745 0.083 -0.729 0.083 -0.729 c 1.205 0.084 1.839 1.237 1.839 1.237 c 1.07 1.834 2.807 1.304 3.492 0.997 c 0.107 -0.775 0.418 -1.305 0.762 -1.604 c -2.665 -0.305 -5.467 -1.334 -5.467 -5.931 c 0 -1.311 0.469 -2.381 1.236 -3.221 c -0.124 -0.303 -0.535 -1.524 0.117 -3.176 c 0 0 1.008 -0.322 3.301 1.23 c 0.957 -0.266 1.983 -0.399 3.003 -0.404 c 1.02 0.005 2.047 0.138 3.006 0.404 c 2.291 -1.552 3.297 -1.23 3.297 -1.23 c 0.653 1.653 0.242 2.874 0.118 3.176 c 0.77 0.84 1.235 1.911 1.235 3.221 c 0 4.609 -2.807 5.624 -5.479 5.921 c 0.43 0.372 0.823 1.102 0.823 2.222 v 3.293 c 0 0.319 0.192 0.694 0.801 0.576 c 4.765 -1.589 8.199 -6.086 8.199 -11.386 c 0 -6.627 -5.373 -12 -12 -12 z" stroke-linecap="round"/>
</g>
</svg>