<svg xmlns="http://www.w3.org/2000/svg" xmlns:xlink="http://www.w3.org/1999/xlink" version="1.1" width="1000" height="1000" viewBox="0 0 1000 1000" xml:space="preserve">
<desc>Created with Fabric.js 3.5.0</desc>
<defs>
</defs>
<rect x="0" y="0" width="100%" height="100%" fill="rgba(255,255,255,0)"/>
<g transform="matrix(1 0 0 1 500 500)" id="84610">
<g style="">
		<g transform="matrix(1.7756 0 0 1.7756 0.0057 0.0065)" id="944928">
<path style="stroke: none; stroke-width: 1; stroke-dasharray: none; stroke-linecap: butt; stroke-dashoffset: 0; stroke-linejoin: miter; stroke-miterlimit: 4; is-custom-font: none; font-file-url: none; fill: rgb(255,255,255); fill-rule: nonzero; opacity: 1;" transform=" translate(-256, -306.3)" d="M 107.6 471 l -33 -370.4 h 362.8 l -33 370.2 L 255.7 512" stroke-linecap="round"/>
</g>
		<g transform="matrix(1.7756 0 0 1.7756 131.6607 -0.971)" id="226698">
<path style="stroke: none; stroke-width: 1; stroke-dasharray: none; stroke-linecap: butt; stroke-dashoffset: 0; stroke-linejoin: miter; stroke-miterlimit: 4; is-custom-font: none; font-file-url: none; fill: rgb(255,255,255); fill-rule: nonzero; opacity: 1;" transform=" translate(-330.15, -305.75)" d="M 256 480.5 V 131 H 404.3 L 376 447" stroke-linecap="round"/>
</g>
		<g transform="matrix(1.7756 0 0 1.7756 -101.2056 -2.3929)" id="40727">
<path style="stroke: none; stroke-width: 1; stroke-dasharray: none; stroke-linecap: butt; stroke-dashoffset: 0; stroke-linejoin: miter; stroke-miterlimit: 4; is-custom-font: none; font-file-url: none; fill: rgb(228,77,38); fill-rule: nonzero; opacity: 1;" transform=" translate(-199, -304.95)" d="M 142 176.3 h 114 v 45.4 h -64.2 l 4.2 46.5 h 60 v 45.3 H 154.4 M 156.4 336.3 H 202 l 3.2 36.3 l 50.8 13.6 v 47.4 l -93.2 -26" stroke-linecap="round"/>
</g>
		<g transform="matrix(1.7756 0 0 1.7756 100.6765 -2.5704)" id="537928">
<path style="stroke: none; stroke-width: 1; stroke-dasharray: none; stroke-linecap: butt; stroke-dashoffset: 0; stroke-linejoin: miter; stroke-miterlimit: 4; is-custom-font: none; font-file-url: none; fill: rgb(241,101,41); fill-rule: nonzero; opacity: 1;" transform=" translate(-312.7, -304.85)" d="M 369.6 176.3 H 255.8 v 45.4 h 109.6 M 361.3 268.2 H 255.8 v 45.4 h 56 l -5.3 59 l -50.7 13.6 v 47.2 l 93 -25.8" stroke-linecap="round"/>
</g>
</g>
</g>
</svg>