<svg xmlns="http://www.w3.org/2000/svg" xmlns:xlink="http://www.w3.org/1999/xlink" version="1.1" width="1000" height="1000" viewBox="0 0 1000 1000" xml:space="preserve">
<desc>Created with Fabric.js 3.5.0</desc>
<defs>
</defs>
<rect x="0" y="0" width="100%" height="100%" fill="rgba(255,255,255,0)"/>
<g transform="matrix(0.3551 0 0 -0.3551 334.8705 494.5785)" id="376739">
<path style="stroke: none; stroke-width: 1; stroke-dasharray: none; stroke-linecap: butt; stroke-dashoffset: 0; stroke-linejoin: miter; stroke-miterlimit: 4; is-custom-font: none; font-file-url: none; fill: rgb(0,0,0); fill-rule: nonzero; opacity: 1;" transform=" translate(-815, -1295.259)" d="M 740 1465 l 0 -35 l 50 0 l 50 0 l 0 -113 c 0 -140 -8 -152 -95 -145 l -55 5 l 0 -38 c 0 -30 4 -38 23 -43 c 43 -11 113 -5 155 14 c 63 29 72 58 72 240 l 0 150 l -100 0 l -100 0 l 0 -35 z" stroke-linecap="round"/>
</g>
<g transform="matrix(0.3551 0 0 -0.3551 482.0624 493.25)" id="800537">
<path style="stroke: none; stroke-width: 1; stroke-dasharray: none; stroke-linecap: butt; stroke-dashoffset: 0; stroke-linejoin: miter; stroke-miterlimit: 4; is-custom-font: none; font-file-url: none; fill: rgb(0,0,0); fill-rule: nonzero; opacity: 1;" transform=" translate(-1229.495, -1299)" d="M 1040 1299 l 0 -201 l 118 4 c 94 4 125 9 159 26 c 115 60 138 223 42 314 c -46 44 -102 58 -229 58 l -90 0 l 0 -201 z m 242 82 c 23 -25 28 -41 28 -81 c 0 -40 -5 -56 -28 -81 c -24 -27 -37 -33 -85 -37 l -57 -4 l 0 122 l 0 122 l 57 -4 c 48 -4 61 -10 85 -37 z" stroke-linecap="round"/>
</g>
<g transform="matrix(0.3551 0 0 -0.3551 636.5384 493.0428)" id="87349">
<path style="stroke: none; stroke-width: 1; stroke-dasharray: none; stroke-linecap: butt; stroke-dashoffset: 0; stroke-linejoin: miter; stroke-miterlimit: 4; is-custom-font: none; font-file-url: none; fill: rgb(0,0,0); fill-rule: nonzero; opacity: 1;" transform=" translate(-1664.5, -1299.5838)" d="M 1599 1473 c -6 -15 -35 -93 -64 -173 c -29 -80 -58 -157 -64 -172 l -11 -28 l 54 0 l 53 0 l 12 40 l 12 40 l 74 0 l 74 0 l 12 -40 l 12 -40 l 53 0 l 53 0 l -31 83 c -16 45 -49 134 -72 197 l -41 115 l -58 3 c -54 3 -58 2 -68 -25 z m 90 -145 c 12 -34 21 -66 21 -70 c 0 -4 -20 -8 -45 -8 c -25 0 -45 4 -45 8 c 0 11 41 132 45 132 c 2 0 13 -28 24 -62 z" stroke-linecap="round"/>
</g>
<g transform="matrix(0.3551 0 0 -0.3551 499.805 499.805)" id="736832">
<path style="stroke: none; stroke-width: 0; stroke-dasharray: none; stroke-linecap: butt; stroke-dashoffset: 0; stroke-linejoin: miter; stroke-miterlimit: 4; is-custom-font: none; font-file-url: none; fill: rgb(0,0,0); fill-rule: nonzero; opacity: 1;" transform=" translate(-1280, -1280)" d="M 0 1280 l 0 -1280 l 1280 0 l 1280 0 l 0 1280 l 0 1280 l -1280 0 l -1280 0 l 0 -1280 z m 1043 696 c 4 -10 -14 -20 -61 -36 c -84 -28 -238 -103 -277 -135 c -27 -22 -21 -21 55 11 c 296 123 645 136 935 35 c 44 -16 98 -36 120 -45 l 40 -17 l -25 20 c -36 30 -144 84 -230 117 c -91 34 -86 30 -70 49 c 16 19 70 14 175 -17 c 84 -24 235 -101 268 -137 c 52 -56 155 -344 196 -548 c 24 -118 41 -256 41 -339 c 0 -69 -19 -102 -101 -169 c -83 -70 -251 -135 -349 -135 c -33 0 -42 6 -84 59 c -48 62 -56 81 -32 81 c 42 0 246 132 246 158 c 0 4 -48 -16 -107 -45 c -153 -75 -266 -103 -434 -110 c -85 -4 -168 -1 -220 6 c -107 16 -273 70 -366 120 c -55 29 -70 34 -62 20 c 21 -41 193 -149 237 -149 c 19 0 16 -6 -40 -75 c -60 -76 -72 -78 -202 -45 c -107 27 -206 82 -277 153 l -59 59 l 0 73 c 0 172 53 443 128 650 c 55 151 89 224 115 246 c 34 28 186 105 245 124 c 100 32 187 42 195 21 z" stroke-linecap="round"/>
</g>
</svg>