<svg xmlns="http://www.w3.org/2000/svg" xmlns:xlink="http://www.w3.org/1999/xlink" version="1.1" width="1000" height="1000" viewBox="0 0 1000 1000" xml:space="preserve">
<desc>Created with Fabric.js 3.5.0</desc>
<defs>
</defs>
<rect x="0" y="0" width="100%" height="100%" fill="rgba(255,255,255,0)"/>
<g transform="matrix(0.96 0 0 0.96 500.0145 500.0145)" id="211158">
<g style="" vector-effect="non-scaling-stroke">
		<g transform="matrix(1 0 0 1 0 0.1)" id="Ebene_1">
<path style="stroke: none; stroke-width: 1; stroke-dasharray: none; stroke-linecap: butt; stroke-dashoffset: 0; stroke-linejoin: miter; stroke-miterlimit: 4; is-custom-font: none; font-file-url: none; fill: rgb(255,255,255); fill-rule: nonzero; opacity: 1;" transform=" translate(-473.5, -473.6)" d="M 835.5 473.6 c 0 -199.8 -162.2 -362 -362 -362 s -362 162.2 -362 362 c 0 199.8 162.2 362 362 362 S 835.5 673.4 835.5 473.6" stroke-linecap="round"/>
</g>
		<g transform="matrix(1 0 0 1 150 -149.9)" id="Ebene_1">
<path style="stroke: none; stroke-width: 1; stroke-dasharray: none; stroke-linecap: butt; stroke-dashoffset: 0; stroke-linejoin: miter; stroke-miterlimit: 4; is-custom-font: none; font-file-url: none; fill: rgb(0,0,128); fill-rule: nonzero; opacity: 1;" transform=" translate(-623.5, -323.6)" d="M 729.5 323.6 c 0 -58.5 -47.5 -106 -106 -106 s -106 47.5 -106 106 c 0 58.5 47.5 106 106 106 S 729.5 382.1 729.5 323.6" stroke-linecap="round"/>
</g>
		<g transform="matrix(1 0 0 1 362 -362)" id="Ebene_1">
<path style="stroke: none; stroke-width: 1; stroke-dasharray: none; stroke-linecap: butt; stroke-dashoffset: 0; stroke-linejoin: miter; stroke-miterlimit: 4; is-custom-font: none; font-file-url: none; fill: rgb(255,255,255); fill-rule: nonzero; opacity: 1;" transform=" translate(-835.5, -111.5)" d="M 941.5 111.5 c 0 -58.5 -47.5 -106 -106 -106 s -106 47.5 -106 106 c 0 58.5 47.5 106 106 106 S 941.5 170.1 941.5 111.5" stroke-linecap="round"/>
</g>
		<g transform="matrix(1 0 0 1 -171.9 62.25)" id="Ebene_1">
<path style="stroke: none; stroke-width: 1; stroke-dasharray: none; stroke-linecap: butt; stroke-dashoffset: 0; stroke-linejoin: miter; stroke-miterlimit: 4; is-custom-font: none; font-file-url: none; fill: rgb(0,0,128); fill-rule: nonzero; opacity: 1;" transform=" translate(-301.6, -535.75)" d="M 258.1 627.8 h 117.3 v 26.7 H 227.8 V 417 h 30.3 V 627.8 z" stroke-linecap="round"/>
</g>
		<g transform="matrix(1 0 0 1 -1.5 99.4)" id="Ebene_1">
<path style="stroke: none; stroke-width: 1; stroke-dasharray: none; stroke-linecap: butt; stroke-dashoffset: 0; stroke-linejoin: miter; stroke-miterlimit: 4; is-custom-font: none; font-file-url: none; fill: rgb(0,0,128); fill-rule: nonzero; opacity: 1;" transform=" translate(-472, -572.9)" d="M 515.5 654.5 v -23.8 c -16 22.5 -31.9 31.3 -57 31.3 c -33.2 0 -54.4 -18.2 -54.4 -46.6 V 483.8 h 27 v 120.9 c 0 20.5 13.7 33.6 35.2 33.6 c 28.3 0 46.6 -22.8 46.6 -57.7 v -96.8 h 27 v 170.7 H 515.5 z" stroke-linecap="round"/>
</g>
		<g transform="matrix(1 0 0 1 184.6 96.95)" id="Ebene_1">
<path style="stroke: none; stroke-width: 1; stroke-dasharray: none; stroke-linecap: butt; stroke-dashoffset: 0; stroke-linejoin: miter; stroke-miterlimit: 4; is-custom-font: none; font-file-url: none; fill: rgb(0,0,128); fill-rule: nonzero; opacity: 1;" transform=" translate(-658.1, -570.45)" d="M 738.4 659.1 c -8.8 2.3 -13 2.9 -18.6 2.9 c -17.6 0 -26.1 -7.8 -28 -25.1 c -19.2 17.6 -36.5 25.1 -58 25.1 c -34.5 0 -56 -19.5 -56 -50.5 c 0 -22.2 10.1 -37.5 30 -45.6 c 10.4 -4.2 16.3 -5.5 54.7 -10.4 c 21.5 -2.6 28.3 -7.5 28.3 -18.9 v -7.2 c 0 -16.3 -13.7 -25.4 -38.1 -25.4 c -25.4 0 -37.8 9.4 -40.1 30.3 h -27.4 c 0.7 -16.9 3.9 -26.7 11.7 -35.5 c 11.4 -12.7 31.9 -19.9 56.7 -19.9 c 42 0 64.2 16.3 64.2 46.6 v 100.4 c 0 8.5 5.2 13.4 14.7 13.4 c 1.6 0 2.9 0 5.9 -0.7 V 659.1 z M 690.8 570.1 c -9.1 4.2 -15 5.5 -43.7 9.4 c -29 4.2 -41.1 13.4 -41.1 31.3 c 0 17.3 12.4 27.4 33.6 27.4 c 16 0 29.3 -5.2 40.4 -15.3 c 8.1 -7.5 10.8 -13 10.8 -22.2 V 570.1 z" stroke-linecap="round"/>
</g>
		<g transform="matrix(1 0 0 1 0 0)" id="Ebene_1">
<path style="stroke: rgb(255,255,255); stroke-width: 10.8612; stroke-dasharray: 40.8475 40.8475; stroke-linecap: butt; stroke-dashoffset: 0; stroke-linejoin: miter; stroke-miterlimit: 10; is-custom-font: none; font-file-url: none; fill: none; fill-rule: nonzero; opacity: 1;" transform=" translate(-473.5, -473.5)" d="M 890.6 261 c 33.5 65.8 51 138.6 51 212.5 c 0 258.4 -209.7 468.1 -468.1 468.1 S 5.4 731.9 5.4 473.5 C 5.4 215.1 215.1 5.4 473.5 5.4 c 83.1 0 164.6 22.1 236.2 63.9" stroke-linecap="round"/>
</g>
</g>
</g>
</svg>