<svg xmlns="http://www.w3.org/2000/svg" xmlns:xlink="http://www.w3.org/1999/xlink" version="1.1" width="1000" height="1000" viewBox="0 0 1000 1000" xml:space="preserve">
<desc>Created with Fabric.js 3.5.0</desc>
<defs>
</defs>
<rect x="0" y="0" width="100%" height="100%" fill="rgba(255,255,255,0)"/>
<g transform="matrix(3.9342 0 0 3.9342 500.003 500.0004)" id="742459">
<path style="stroke: none; stroke-width: 1; stroke-dasharray: none; stroke-linecap: butt; stroke-dashoffset: 0; stroke-linejoin: miter; stroke-miterlimit: 4; is-custom-font: none; font-file-url: none; fill: rgb(255,255,255); fill-rule: nonzero; opacity: 1;" vector-effect="non-scaling-stroke" transform=" translate(-115.1723, -15.0128)" d="M 99.61 19.52 h 15.24 l -8.05 -13 L 92 30 H 85.27 l 18 -28.17 a 4.29 4.29 0 0 1 7 -0.05 L 128.32 30 h -6.73 l -3.17 -5.25 H 103 l -3.36 -5.23 m 69.93 5.23 V 0.28 h -5.72 V 27.16 a 2.76 2.76 0 0 0 0.85 2 a 2.89 2.89 0 0 0 2.08 0.87 h 26 l 3.39 -5.25 H 169.54 M 75 20.38 A 10 10 0 0 0 75 0.28 H 50 V 30 h 5.71 V 5.54 H 74.65 a 4.81 4.81 0 0 1 0 9.62 H 58.54 L 75.6 30 h 8.29 L 72.43 20.38 H 75 M 14.88 30 H 32.15 a 14.86 14.86 0 0 0 0 -29.71 H 14.88 a 14.86 14.86 0 1 0 0 29.71 m 16.88 -5.23 H 15.26 a 9.62 9.62 0 0 1 0 -19.23 h 16.5 a 9.62 9.62 0 1 1 0 19.23 M 140.25 30 h 17.63 l 3.34 -5.23 H 140.64 a 9.62 9.62 0 1 1 0 -19.23 h 16.75 l 3.38 -5.25 H 140.25 a 14.86 14.86 0 1 0 0 29.71 m 69.87 -5.23 a 9.62 9.62 0 0 1 -9.26 -7 h 24.42 l 3.36 -5.24 H 200.86 a 9.61 9.61 0 0 1 9.26 -7 h 16.76 l 3.35 -5.25 h -20.5 a 14.86 14.86 0 0 0 0 29.71 h 17.63 l 3.35 -5.23 h -20.6" stroke-linecap="round"/>
</g>
</svg>