<svg xmlns="http://www.w3.org/2000/svg" xmlns:xlink="http://www.w3.org/1999/xlink" version="1.1" width="1000" height="1000" viewBox="0 0 1000 1000" xml:space="preserve">
<desc>Created with Fabric.js 3.5.0</desc>
<defs>
</defs>
<rect x="0" y="0" width="100%" height="100%" fill="rgba(255,255,255,0)"/>
<g transform="matrix(1.6605 0 0 1.6605 499.5027 499.5021)" id="479031">
<path style="stroke: none; stroke-width: 0; stroke-dasharray: none; stroke-linecap: butt; stroke-dashoffset: 0; stroke-linejoin: miter; stroke-miterlimit: 4; is-custom-font: none; font-file-url: none; fill: rgb(255,255,255); fill-rule: nonzero; opacity: 1;" vector-effect="non-scaling-stroke" transform=" translate(-273.7156, -205.2636)" d="M 471.4 236 c -19.1 0.1 -35.7 4.7 -49.6 11.5 c -5.1 -10.1 -10.2 -19.1 -11.1 -25.7 c -1 -7.7 -2.2 -12.4 -1 -21.6 c 1.2 -9.2 6.6 -22.3 6.5 -23.3 s -1.2 -5.7 -12.2 -5.8 c -11 -0.1 -20.5 2.1 -21.6 5 c -1.1 2.9 -3.2 9.5 -4.6 16.3 c -1.9 10 -22 45.7 -33.5 64.4 c -3.7 -7.3 -6.9 -13.7 -7.6 -18.8 c -1 -7.7 -2.2 -12.4 -1 -21.6 c 1.2 -9.2 6.6 -22.3 6.5 -23.3 c -0.1 -1 -1.2 -5.7 -12.2 -5.8 c -11 -0.1 -20.5 2.1 -21.6 5 c -1.1 2.9 -2.3 9.7 -4.6 16.3 c -2.3 6.6 -29 66.2 -36 81.6 c -3.6 7.9 -6.7 14.2 -8.9 18.5 c 0 0 0 0 0 0 s -0.1 0.3 -0.4 0.8 c -1.9 3.7 -3 5.7 -3 5.7 s 0 0 0 0.1 c -1.5 2.7 -3.1 5.2 -3.9 5.2 c -0.6 0 -1.7 -7.2 0.2 -17 c 4 -20.7 13.5 -52.9 13.4 -54 c 0 -0.6 1.8 -6.2 -6.2 -9.1 c -7.8 -2.9 -10.6 1.9 -11.3 1.9 c -0.7 0 -1.2 1.7 -1.2 1.7 s 8.7 -36.2 -16.6 -36.2 c -15.8 0 -37.6 17.3 -48.4 32.9 c -6.8 3.7 -21.3 11.6 -36.8 20.1 c -5.9 3.3 -12 6.6 -17.7 9.7 c -0.4 -0.4 -0.8 -0.9 -1.2 -1.3 c -30.6 -32.7 -87.2 -55.8 -84.8 -99.7 c 0.9 -16 6.4 -58 108.7 -109 C 233.9 19 300.9 30.5 312.5 56 c 16.6 36.4 -35.9 104 -122.9 113.8 c -33.2 3.7 -50.6 -9.1 -55 -13.9 c -4.6 -5 -5.3 -5.3 -7 -4.3 c -2.8 1.5 -1 6 0 8.6 c 2.6 6.8 13.3 18.8 31.4 24.7 c 16 5.2 54.9 8.1 102 -10.1 c 52.7 -20.4 93.9 -77.1 81.8 -124.6 C 330.7 2 250.7 -13.9 175 13 C 130 29 81.2 54.2 46.1 87 c -41.7 39 -48.3 72.9 -45.6 87.1 c 9.7 50.4 79.2 83.2 107 107.5 c -1.4 0.8 -2.7 1.5 -3.8 2.1 c -13.9 6.9 -66.9 34.6 -80.1 63.9 c -15 33.2 2.4 57 13.9 60.2 c 35.7 9.9 72.4 -7.9 92.1 -37.3 c 19.7 -29.4 17.3 -67.6 8.2 -85.1 c -0.1 -0.2 -0.2 -0.4 -0.4 -0.6 c 3.6 -2.1 7.3 -4.3 10.9 -6.4 c 7.1 -4.2 14.1 -8.1 20.1 -11.3 c -3.4 9.3 -5.9 20.4 -7.1 36.4 c -1.5 18.8 6.2 43.2 16.3 52.8 c 4.5 4.2 9.8 4.3 13.2 4.3 c 11.8 0 17.1 -9.8 23 -21.4 c 7.2 -14.2 13.7 -30.7 13.7 -30.7 s -8.1 44.6 13.9 44.6 c 8 0 16.1 -10.4 19.7 -15.7 c 0 0.1 0 0.1 0 0.1 s 0.2 -0.3 0.6 -1 c 0.8 -1.3 1.3 -2.1 1.3 -2.1 s 0 -0.1 0 -0.2 c 3.2 -5.6 10.4 -18.3 21.1 -39.4 c 13.8 -27.2 27.1 -61.2 27.1 -61.2 s 1.2 8.3 5.3 22.1 c 2.4 8.1 7.4 17 11.4 25.6 c -3.2 4.5 -5.2 7 -5.2 7 s 0 0 0.1 0.1 c -2.6 3.4 -5.4 7.1 -8.5 10.7 c -10.9 13 -23.9 27.9 -25.7 32.2 c -2.1 5.1 -1.6 8.8 2.4 11.8 c 2.9 2.2 8.1 2.5 13.4 2.2 c 9.8 -0.7 16.7 -3.1 20.1 -4.6 c 5.3 -1.9 11.5 -4.8 17.3 -9.1 c 10.7 -7.9 17.2 -19.2 16.6 -34.1 c -0.3 -8.2 -3 -16.4 -6.3 -24.1 c 1 -1.4 1.9 -2.8 2.9 -4.2 c 16.9 -24.7 30 -51.8 30 -51.8 s 1.2 8.3 5.3 22.1 c 2 7 6.1 14.6 9.7 22 c -15.9 12.9 -25.7 27.9 -29.2 37.7 c -6.3 18.2 -1.4 26.4 7.9 28.3 c 4.2 0.9 10.2 -1.1 14.6 -3 c 5.6 -1.8 12.2 -4.9 18.5 -9.5 c 10.7 -7.9 21 -18.9 20.4 -33.8 c -0.3 -6.8 -2.1 -13.5 -4.6 -20 c 13.5 -5.6 30.9 -8.7 53.1 -6.1 c 47.6 5.6 57 35.3 55.2 47.8 c -1.8 12.5 -11.8 19.3 -15.1 21.4 c -3.3 2.1 -4.4 2.8 -4.1 4.3 c 0.4 2.2 2 2.1 4.8 1.7 c 3.9 -0.7 25 -10.1 25.9 -33.1 C 548.9 267.8 520.9 235.7 471.4 236 z M 104.2 359.8 C 88.4 377 66.4 383.5 56.9 378 c -10.2 -5.9 -6.2 -31.3 13.2 -49.5 c 11.8 -11.1 27 -21.4 37.1 -27.7 c 2.3 -1.4 5.7 -3.4 9.8 -5.9 c 0.7 -0.4 1.1 -0.6 1.1 -0.6 l 0 0 c 0.8 -0.5 1.6 -1 2.4 -1.5 C 127.6 318.8 120.8 341.7 104.2 359.8 z M 219.2 281.6 c -5.5 13.4 -17 47.7 -24 45.8 c -6 -1.6 -9.7 -27.6 -1.2 -53.3 c 4.3 -12.9 13.4 -28.3 18.7 -34.3 c 8.6 -9.6 18.1 -12.8 20.4 -8.9 C 236 236 222.6 273.2 219.2 281.6 z M 314.1 327 c -2.3 1.2 -4.5 2 -5.5 1.4 c -0.7 -0.4 1 -2 1 -2 s 11.9 -12.8 16.6 -18.6 c 2.7 -3.4 5.9 -7.4 9.3 -11.9 c 0 0.4 0 0.9 0 1.3 C 335.5 312.5 320.7 322.8 314.1 327 z M 387.3 310.3 c -1.7 -1.2 -1.4 -5.2 4.3 -17.7 c 2.2 -4.9 7.4 -13.1 16.3 -21 c 1 3.2 1.7 6.3 1.6 9.2 C 409.4 300.1 395.6 307.3 387.3 310.3 z" stroke-linecap="round"/>
</g>
</svg>