<?xml version="1.0" standalone="no"?>
<!DOCTYPE svg PUBLIC "-//W3C//DTD SVG 20010904//EN"
 "http://www.w3.org/TR/2001/REC-SVG-20010904/DTD/svg10.dtd">
<svg version="1.0" xmlns="http://www.w3.org/2000/svg"
 width="179.000000pt" height="127.000000pt" viewBox="0 0 179.000000 127.000000"
 preserveAspectRatio="xMidYMid meet">

<g transform="translate(0.000000,127.000000) scale(0.100000,-0.100000)"
fill="#000000" stroke="none">
<path d="M945 1232 c-11 -2 -28 -11 -37 -19 -14 -12 -39 -15 -124 -12 l-107 4
-15 -41 c-26 -71 -18 -76 102 -68 77 5 105 3 111 -6 13 -22 6 -142 -10 -160
-8 -9 -15 -22 -15 -28 0 -11 -13 -43 -61 -148 -12 -24 -19 -63 -19 -97 0 -56
-1 -57 -29 -57 -16 0 -39 -11 -56 -25 l-27 -26 7 50 c6 43 4 50 -13 55 -33 11
-52 -4 -63 -51 l-12 -44 -21 20 c-19 18 -35 21 -109 21 -80 0 -87 2 -87 20 0
19 -7 20 -105 20 -124 0 -144 -9 -170 -76 -16 -43 -16 -46 0 -64 9 -10 27 -21
39 -23 14 -3 10 -5 -12 -6 -24 -1 -35 -7 -41 -23 -11 -31 -3 -48 23 -48 40 0
63 -26 70 -80 8 -57 25 -70 95 -70 22 0 44 -6 51 -15 19 -23 120 -15 120 10 0
8 23 15 65 20 36 3 67 11 70 16 11 16 100 10 161 -12 44 -16 91 -22 189 -26
123 -5 190 3 292 33 33 9 39 -19 12 -55 -27 -37 -28 -75 -3 -127 24 -48 58
-57 164 -44 81 11 191 58 244 106 l29 26 -18 55 c-25 73 -34 83 -81 90 -35 4
-43 10 -65 51 -42 80 -64 98 -163 137 -81 31 -93 39 -89 56 4 14 0 22 -15 25
-13 4 -18 12 -15 23 5 21 -21 45 -41 38 -10 -4 -15 9 -19 50 -3 31 -10 59 -15
62 -6 3 -12 17 -13 31 -3 17 -11 26 -26 28 -20 3 -23 9 -23 53 0 46 -2 49 -25
49 -25 0 -25 1 -25 88 l0 87 111 0 c99 1 113 3 126 20 12 18 11 80 -2 94 -2 1
-51 -2 -110 -9 -73 -8 -109 -9 -118 -2 -20 17 -60 29 -82 24z m73 -41 c3 -10
0 -10 -17 -2 -25 14 -27 20 -4 17 9 -2 19 -8 21 -15z m174 -574 c-2 -22 1 -27
18 -27 27 0 21 -24 -7 -28 -16 -2 -22 -15 -32 -72 -12 -65 -15 -70 -38 -70
-21 0 -24 3 -19 28 16 90 17 105 4 114 -10 7 -10 11 4 22 10 7 22 25 28 40 14
37 46 32 42 -7z m-532 3 c0 -15 -7 -20 -25 -20 -18 0 -25 5 -25 20 0 15 7 20
25 20 18 0 25 -5 25 -20z m-312 -7 c-3 -15 -18 -19 -88 -23 -77 -5 -85 -7 -85
-25 0 -18 6 -20 56 -17 32 2 66 -1 78 -7 20 -11 27 -43 15 -74 -8 -22 -52 -9
-56 17 -3 18 -11 21 -55 24 -29 2 -53 8 -53 14 0 5 -7 25 -16 44 -26 55 -11
64 108 64 89 0 99 -2 96 -17z m200 -44 c9 -13 11 -35 6 -65 -6 -45 -7 -45 -25
-25 -11 11 -19 31 -19 45 0 51 -84 45 -94 -6 -13 -66 -10 -70 39 -66 37 3 45
0 45 -14 0 -13 -11 -18 -52 -20 -46 -3 -53 -6 -59 -28 -6 -21 -7 -21 -8 -5 -1
11 -7 29 -14 40 -10 15 -11 36 -4 82 8 59 11 63 40 72 18 5 55 10 82 10 40 1
53 -3 63 -20z m102 7 c0 -8 -5 -37 -12 -65 -10 -44 -15 -51 -36 -51 -20 0 -23
4 -18 28 3 15 8 44 12 65 5 31 10 37 30 37 14 0 24 -6 24 -14z m220 7 c0 -5
-7 -52 -17 -107 -15 -85 -20 -100 -41 -109 -18 -9 -25 -8 -32 3 -6 9 -5 19 0
24 22 22 10 36 -30 36 -50 0 -93 19 -85 38 3 7 5 27 5 43 0 18 10 39 25 54 21
22 33 25 100 25 41 0 75 -3 75 -7z m210 -8 c15 -18 -3 -110 -27 -137 -21 -23
-144 -26 -162 -4 -17 20 3 124 26 142 25 19 147 18 163 -1z m-740 -5 c0 -6
-34 -10 -81 -10 -51 0 -78 4 -74 10 3 6 40 10 81 10 43 0 74 -4 74 -10z"/>
<path d="M738 548 c-9 -7 -18 -29 -20 -48 -3 -35 -2 -35 39 -38 45 -3 47 0 55
68 3 21 -2 25 -27 28 -16 2 -38 -3 -47 -10z"/>
<path d="M968 553 c-18 -4 -26 -24 -31 -73 -1 -19 3 -26 22 -28 48 -7 68 5 74
45 6 56 -11 70 -65 56z"/>
</g>
</svg>
