<svg xmlns="http://www.w3.org/2000/svg" xmlns:xlink="http://www.w3.org/1999/xlink" version="1.1" width="1000" height="1000" viewBox="0 0 1000 1000" xml:space="preserve">
<desc>Created with Fabric.js 3.5.0</desc>
<defs>
</defs>
<rect x="0" y="0" width="100%" height="100%" fill="rgba(255,255,255,0)"/>
<g transform="matrix(14.1923 0 0 14.1923 500.0003 500.0003)" id="136351">
<path style="stroke: none; stroke-width: 1; stroke-dasharray: none; stroke-linecap: butt; stroke-dashoffset: 0; stroke-linejoin: miter; stroke-miterlimit: 4; is-custom-font: none; font-file-url: none; fill: rgb(255,255,255); fill-rule: nonzero; opacity: 1;" vector-effect="non-scaling-stroke" transform=" translate(-31.9727, -31.974)" d="M 58.2 3.365 a 29.503 29.503 0 0 1 -3.419 6.064 A 32.094 32.094 0 1 0 9.965 55.372 l 1.186 1.047 a 32.08 32.08 0 0 0 52.67 -22.253 c 0.875 -8.17 -1.524 -18.51 -5.62 -30.8 z M 14.53 55.558 a 2.744 2.744 0 1 1 -0.404 -3.857 a 2.744 2.744 0 0 1 0.404 3.857 z m 43.538 -9.61 c -7.92 10.55 -24.83 6.99 -35.672 7.502 c 0 0 -1.922 0.113 -3.857 0.43 c 0 0 0.73 -0.31 1.663 -0.663 c 7.614 -2.65 11.213 -3.16 15.838 -5.54 c 8.708 -4.427 17.322 -14.122 19.112 -24.2 c -3.313 9.695 -13.373 18.032 -22.53 21.418 c -6.276 2.313 -17.614 4.566 -17.614 4.566 l -0.457 -0.245 c -7.714 -3.75 -7.952 -20.457 6.077 -25.845 c 6.143 -2.366 12.02 -1.067 18.654 -2.65 c 7.084 -1.683 15.28 -6.99 18.615 -13.916 c 3.73 11.08 8.224 28.422 0.166 39.15 z" stroke-linecap="round"/>
</g>
</svg>